<svg xmlns="http://www.w3.org/2000/svg" viewBox="0 0 256 256"><title>NPM</title><path d="M0,79.07H256V164.4H128v14.23H71.11V164.4H0Zm14.22,71.11H42.67V107.51H56.89v42.67H71.11V93.29H14.22ZM85.33,93.29V164.4h28.45V150.18h28.44V93.29Zm28.45,14.22H128V136H113.78Zm42.66-14.22v56.89h28.45V107.51h14.22v42.67h14.22V107.51h14.23v42.67h14.22V93.29Z" style="fill:#030303;stroke:#030303;stroke-miterlimit:10"/><polygon points="14.22 150.18 42.67 150.18 42.67 107.51 56.89 107.51 56.89 150.18 71.11 150.18 71.11 93.29 14.22 93.29 14.22 150.18" style="fill:#fff"/><path d="M85.33,93.29V164.4h28.45V150.18h28.44V93.29ZM128,136H113.78V107.51H128Z" style="fill:#fff"/><polygon points="156.44 93.29 156.44 150.18 184.89 150.18 184.89 107.51 199.11 107.51 199.11 150.18 213.33 150.18 213.33 107.51 227.56 107.51 227.56 150.18 241.78 150.18 241.78 93.29 156.44 93.29" style="fill:#fff"/></svg>
