<svg id="Layer_1" data-name="Layer 1" xmlns="http://www.w3.org/2000/svg" viewBox="0 0 80 80"><title>Portfolio Icons</title><path d="M40-.31a40,40,0,0,0-12.65,78c2,.37,2.73-.87,2.73-1.93s0-4.11-.05-7.45c-11.13,2.42-13.48-4.72-13.48-4.72-1.82-4.63-4.44-5.86-4.44-5.86-3.63-2.48.27-2.43.27-2.43,4,.28,6.13,4.12,6.13,4.12,3.57,6.12,9.36,4.35,11.65,3.33a8.52,8.52,0,0,1,2.54-5.35c-8.89-1-18.23-4.44-18.23-19.78a15.49,15.49,0,0,1,4.12-10.74c-.42-1-1.79-5.08.39-10.59,0,0,3.36-1.07,11,4.1a37.95,37.95,0,0,1,20,0c7.64-5.18,11-4.1,11-4.1,2.18,5.51.81,9.58.39,10.59a15.46,15.46,0,0,1,4.12,10.74c0,15.37-9.36,18.75-18.27,19.74C48.68,58.6,50,61,50,64.77c0,5.35,0,9.66,0,11,0,1.07.72,2.31,2.75,1.92A40,40,0,0,0,40-.31Z" style="fill-rule:evenodd"/><path d="M15.12,57.14c-.09.2-.4.26-.69.12s-.45-.4-.36-.6.4-.26.69-.12.46.4.36.6Zm-.49-.36"/><path d="M16.74,59c-.19.18-.56.09-.82-.19a.61.61,0,0,1-.12-.83c.2-.18.56-.09.82.19s.31.65.11.83Zm-.38-.41"/><path d="M18.32,61.25c-.25.17-.65,0-.89-.34s-.25-.78,0-1,.64,0,.89.34.24.79,0,1Zm0,0"/><path d="M20.48,63.48c-.22.24-.69.18-1-.15a.77.77,0,0,1-.23-1c.22-.24.69-.17,1,.15s.45.78.22,1Zm0,0"/><path d="M23.46,64.77c-.1.31-.55.46-1,.32s-.75-.5-.66-.82.55-.46,1-.32.75.5.65.82Zm0,0"/><path d="M26.74,65c0,.33-.37.6-.85.61S25,65.37,25,65s.38-.6.85-.61.87.26.87.58Zm0,0"/><path d="M29.79,64.5c.06.32-.27.65-.75.74s-.89-.11-1-.43.28-.66.74-.75.9.11,1,.44Zm0,0"/></svg>