<svg id="Layer_1" data-name="Layer 1" xmlns="http://www.w3.org/2000/svg" viewBox="0 0 80 80"><title>Portfolio Icons</title><path d="M25,72.35c30.25,0,46.79-25.06,46.79-46.79,0-.71,0-1.42,0-2.13A33.46,33.46,0,0,0,80,14.91a32.83,32.83,0,0,1-9.45,2.59,16.5,16.5,0,0,0,7.23-9.1,33,33,0,0,1-10.44,4,16.46,16.46,0,0,0-28,15A46.69,46.69,0,0,1,5.37,10.21a16.46,16.46,0,0,0,5.09,22A16.32,16.32,0,0,1,3,30.11v.21A16.45,16.45,0,0,0,16.19,46.44a16.42,16.42,0,0,1-7.43.28A16.46,16.46,0,0,0,24.13,58.14,33,33,0,0,1,3.71,65.2,33.48,33.48,0,0,1-.21,65,46.56,46.56,0,0,0,25,72.33"/></svg>